<?xml version="1.0" encoding="UTF-8" standalone="no"?>
<svg
   width="16"
   height="16"
   fill="currentColor"
   class="bi bi-facebook"
   viewBox="0 0 16 16"
   version="1.1"
   id="svg19"
   sodipodi:docname="facebook.svg"
   inkscape:version="1.1 (c68e22c387, 2021-05-23)"
   xmlns:inkscape="http://www.inkscape.org/namespaces/inkscape"
   xmlns:sodipodi="http://sodipodi.sourceforge.net/DTD/sodipodi-0.dtd"
   xmlns="http://www.w3.org/2000/svg"
   xmlns:svg="http://www.w3.org/2000/svg">
  <defs
     id="defs23" />
  <sodipodi:namedview
     id="namedview21"
     pagecolor="#ffffff"
     bordercolor="#666666"
     borderopacity="1.0"
     inkscape:pageshadow="2"
     inkscape:pageopacity="0.0"
     inkscape:pagecheckerboard="0"
     showgrid="false"
     inkscape:zoom="54.5625"
     inkscape:cx="7.9908362"
     inkscape:cy="8"
     inkscape:window-width="1299"
     inkscape:window-height="1081"
     inkscape:window-x="911"
     inkscape:window-y="863"
     inkscape:window-maximized="0"
     inkscape:current-layer="svg19" />
  <path
     id="path17"
     d="m 8,-0.00195312 c -4.42,9.9999e-4 -8.00195312,3.60573432 -8.00195312,8.05273432 0,4.0169998 2.92600002,7.3471718 6.75000002,7.9511718 v -5.625 H 4.71875 V 8.0507812 H 6.75 V 6.2753906 c 0,-2.017 1.1944844,-3.1308594 3.0214844,-3.1308594 0.8759996,0 1.7910156,0.15625 1.7910156,0.15625 V 5.28125 h -1.007812 c -0.993001,0 -1.3027349,0.6208125 -1.3027349,1.2578125 V 8.0488281 H 11.46875 L 11.115234,10.375 H 9.25 V 16 C 13.074,15.396 16,12.065828 16,8.0488281 c 0,-4.446 -3.582,-8.05078122 -8,-8.05078122 z" />
  <path
     id="path253"
     style="fill:#ececec;stroke:none;stroke-width:0.0183276"
     d="M 7.8320312,0.01171875 C 5.231863,0.06227426 2.7834874,1.409682 1.3339844,3.6191406 0.5326341,4.8406284 0.09702869,6.179894 0.01757813,7.671875 c -0.09502888,1.7845218 0.46040135,3.648582 1.51757807,5.099609 1.2021243,1.649975 2.902435,2.746421 4.8984376,3.16211 0.115922,0.02414 0.2320446,0.04598 0.2597656,0.04688 l 0.050781,0.002 V 13.1875 10.392578 H 5.7265625 4.7109375 V 9.21875 8.0449219 h 1.015625 1.0175781 V 7.0214844 c 0,-1.0486297 0.00948,-1.261162 0.074219,-1.5878906 C 6.9068014,4.9872479 7.1038419,4.5259817 7.3378906,4.2148438 7.7264153,3.6983496 8.3175738,3.3418097 9.0058594,3.2089844 9.5524764,3.1034982 10.25413,3.1141227 11.257812,3.2460938 l 0.306641,0.041016 v 1.0039062 1.0039063 l -0.673828,0.00586 c -0.74439,0.00762 -0.766376,0.011679 -1.0273438,0.1347657 -0.099628,0.04699 -0.1701048,0.097434 -0.2675781,0.1953125 C 9.4468021,5.780379 9.3705299,5.9160349 9.3066406,6.1484375 9.2682786,6.2880282 9.2663256,6.3367394 9.2597656,7.1699219 l -0.00781,0.875 h 1.1113279 c 0.858637,0 1.109375,0.00622 1.109375,0.023437 0,0.012244 -0.07807,0.5345882 -0.173828,1.1621094 C 11.203068,9.8579897 11.125,10.377413 11.125,10.382812 c 0,0.0054 -0.421458,0.0098 -0.935547,0.0098 H 9.2558594 V 13.1875 c 0,2.428679 0.00231,2.794922 0.025391,2.794922 0.1150983,0 0.814382,-0.166445 1.15625,-0.275391 0.522576,-0.166533 1.241013,-0.498409 1.720703,-0.794922 1.999152,-1.235743 3.361174,-3.27803 3.730469,-5.5878902 0.11159,-0.697992 0.126778,-1.6079415 0.03711,-2.2949219 C 15.660572,4.9974624 14.651422,3.1533979 13.09375,1.8574219 11.739908,0.73103087 10.12016,0.10340483 8.3554688,0.01953125 8.1810383,0.01124078 8.0053759,0.00834838 7.8320312,0.01171875 Z" />
  <path
     id="path329"
     style="fill:#ececec;stroke-width:0.0183276"
     d="M 8.0585938,0.01953125 C 6.8706552,0.01176791 5.6790247,0.27350961 4.5722656,0.8046875 3.1073747,1.5077471 1.8792197,2.6540425 1.0742188,4.0664062 0.53311843,5.0157596 0.20921661,6.0108836 0.06835937,7.1660156 0.01566071,7.5981831 0.01199406,8.4853836 0.06054688,8.8925781 0.24043712,10.401253 0.77889555,11.75886 1.6503906,12.902344 c 1.1156649,1.463857 2.6190269,2.464542 4.3984375,2.929687 0.2090703,0.05465 0.5252092,0.123478 0.6308594,0.136719 0.030241,0.0038 0.058027,0.0083 0.060547,0.0098 0.00252,0.0015 0.00391,-1.253788 0.00391,-2.791016 V 10.392578 H 5.7265625 4.7109375 V 9.21875 8.0449219 h 1.015625 1.0175781 V 6.9941406 c 0,-1.0855599 0.010034,-1.2986901 0.076172,-1.6054687 C 6.8997406,5.0202496 7.0768733,4.5861422 7.2558594,4.3164062 7.6957335,3.6535068 8.4289118,3.246985 9.3554688,3.1523438 c 0.2708188,-0.027662 1.0234462,-0.014822 1.4003902,0.025391 0.30756,0.03281 0.685943,0.081113 0.757813,0.095703 l 0.05078,0.00977 V 4.2910156 5.296875 l -0.05078,0.00195 c -0.02772,7.47e-4 -0.338599,0.00744 -0.691406,0.015625 -0.526319,0.012217 -0.659508,0.020919 -0.742188,0.046875 -0.3775343,0.118518 -0.6332491,0.3739743 -0.7499999,0.75 C 9.2845331,6.2580209 9.2777,6.3630368 9.265625,7.390625 l -0.00781,0.6542969 h 1.1113285 1.109375 l -0.0098,0.091797 c -0.0048,0.050237 -0.08217,0.5789543 -0.171875,1.1738281 L 11.134766,10.392578 H 10.191406 9.25 l 0.013672,2.771484 c 0.00761,1.585341 0.019917,2.779363 0.029297,2.789063 0.034171,0.03541 0.7733892,-0.138012 1.2089842,-0.283203 0.600213,-0.20006 1.346049,-0.562975 1.859375,-0.904297 0.897703,-0.596904 1.683532,-1.380965 2.277344,-2.275391 0.692125,-1.042508 1.159037,-2.315576 1.287109,-3.5097652 0.06319,-0.5895157 0.06032,-1.4157551 -0.0078,-1.9355469 C 15.565418,4.3556023 13.924954,2.0441849 11.527344,0.8515625 10.43053,0.30598396 9.2465322,0.02729459 8.0585938,0.01953125 Z" />
  <path
     id="path368"
     style="fill:#ececec;stroke-width:0.0183276"
     d="M 8.1289062,0.02148438 C 7.5949573,0.01243072 7.0593934,0.0579611 6.5332031,0.15820312 3.783775,0.68198366 1.5071575,2.6098807 0.51953125,5.25 0.29939623,5.8384643 0.14513346,6.5029579 0.06054688,7.2304688 c -0.0449533,0.3866335 -0.04473537,1.2859627 0,1.6621093 0.17938255,1.5082959 0.71729207,2.8644789 1.58984372,4.0097659 1.0642882,1.396954 2.5093834,2.392542 4.1640625,2.867187 0.2818092,0.08084 0.7295907,0.184578 0.8574219,0.199219 0.03528,0.0041 0.065839,0.0082 0.068359,0.0098 0.00252,0.0016 0.00391,-1.253788 0.00391,-2.791016 V 10.392578 H 5.7265625 4.7109375 V 9.21875 8.0449219 h 1.015625 1.0175781 V 7.0058594 C 6.744149,6.428227 6.7531057,5.8770506 6.7636719,5.765625 6.8115381,5.2608543 6.991172,4.7279317 7.2441406,4.3398438 7.6848693,3.6637064 8.4034064,3.255451 9.3320312,3.1542969 9.5581202,3.129669 10.105019,3.1279077 10.4375,3.1523438 c 0.261015,0.019184 1.010866,0.1046342 1.085938,0.1230468 l 0.04101,0.00977 V 4.2910156 5.296875 l -0.05078,0.00195 c -0.02772,7.46e-4 -0.338599,0.00744 -0.691406,0.015625 -0.526319,0.012216 -0.659508,0.020919 -0.742188,0.046875 -0.3793717,0.119095 -0.6334455,0.3727817 -0.7499999,0.75 -0.045851,0.1483937 -0.052256,0.2552402 -0.064453,1.2617188 l -0.00781,0.671875 h 1.1074215 c 1.042274,0 1.10844,0.00302 1.109375,0.033203 5.46e-4,0.01764 -0.07613,0.5443968 -0.169921,1.171875 l -0.169922,1.142578 H 10.191406 9.25 l 0.013672,2.771484 c 0.00758,1.584612 0.019927,2.779463 0.029297,2.789063 0.035508,0.03638 0.7583392,-0.133264 1.2089842,-0.283203 0.598942,-0.199281 1.345674,-0.562725 1.859375,-0.904297 1.857569,-1.235141 3.125787,-3.171742 3.5,-5.3476562 0.05974,-0.3473379 0.07847,-0.5359854 0.101563,-1.0019532 0.02123,-0.4284632 0.0034,-1.0024484 -0.04492,-1.3710937 C 15.565347,4.3549842 13.930584,2.0500714 11.527344,0.84960938 10.471984,0.32243823 9.3035942,0.04140241 8.1289062,0.02148438 Z" />
  <path
     id="path407"
     style="fill:#ffffff;stroke-width:0.0183276"
     d="M 7.8359375,0.0234375 C 7.0632776,0.03941999 6.2921681,0.1682139 5.5527344,0.41015625 2.7949376,1.3125059 0.73116742,3.6409766 0.17578125,6.4785156 0.06262551,7.0566427 0.02822064,7.4180895 0.02734375,8.0546875 c -7.9504e-4,0.5771812 0.01511969,0.7788674 0.1015625,1.3046875 0.49627063,3.018748 2.67321735,5.502501 5.59374995,6.382813 0.2653829,0.07999 0.7896959,0.206307 0.9394532,0.226562 0.030241,0.0041 0.060799,0.0083 0.068359,0.0098 0.00756,0.0015 0.013672,-1.253788 0.013672,-2.791016 V 10.392578 H 5.7265625 4.7109375 V 9.21875 8.0449219 h 1.015625 1.015625 L 6.75,6.8691406 C 6.7577897,5.7784285 6.7603993,5.6768263 6.7949219,5.5039062 6.9342904,4.8058258 7.2472834,4.2071164 7.65625,3.8535156 8.1277658,3.4458338 8.6695696,3.2224586 9.3652344,3.1503906 9.6265274,3.1233216 10.386565,3.1397148 10.75,3.1796875 c 0.340277,0.037422 0.701162,0.08143 0.763672,0.09375 l 0.05078,0.00977 v 1.0039063 1.0039062 l -0.234375,0.011719 c -0.128522,0.00655 -0.398168,0.011682 -0.601562,0.011719 -0.487885,9.81e-5 -0.612567,0.018476 -0.8300785,0.1210938 C 9.7584935,5.501565 9.7041796,5.5406838 9.6054688,5.6425781 9.3909654,5.8639983 9.2944427,6.1018164 9.28125,6.4511719 9.2768724,6.567094 9.2703226,6.9729887 9.265625,7.3535156 l -0.00781,0.6914063 1.0839845,0.00195 c 0.632805,1.64e-4 1.095688,0.00573 1.111328,0.015625 0.02301,0.014552 0.0044,0.1800944 -0.142578,1.1601562 -0.09421,0.6280913 -0.175388,1.1486498 -0.179688,1.1562498 -0.0043,0.0076 -0.43022,0.01367 -0.945312,0.01367 H 9.25 l 0.011719,2.771484 c 0.00766,1.626064 0.02144,2.779163 0.03125,2.789063 0.03615,0.03631 0.7647062,-0.133864 1.2050782,-0.28125 0.614225,-0.205573 1.34477,-0.56148 1.863281,-0.90625 1.86989,-1.243334 3.142895,-3.199011 3.507813,-5.390625 0.11725,-0.7042159 0.1361,-1.6428524 0.04688,-2.3339844 C 15.800719,6.147994 15.524594,5.2429562 15.119141,4.4335938 14.332862,2.8640315 13.038876,1.5832517 11.457031,0.8125 10.430751,0.31244644 9.3025985,0.04733287 8.1679688,0.0234375 c -0.1103113,-0.0023232 -0.2216513,-0.0022832 -0.3320313,0 z" />
</svg>
