<?xml version="1.0" encoding="UTF-8" standalone="no"?>
<svg
   width="16"
   height="16"
   fill="currentColor"
   class="bi bi-instagram"
   viewBox="0 0 16 16"
   version="1.1"
   id="svg1143"
   sodipodi:docname="instagram.svg"
   inkscape:version="1.1 (c68e22c387, 2021-05-23)"
   xmlns:inkscape="http://www.inkscape.org/namespaces/inkscape"
   xmlns:sodipodi="http://sodipodi.sourceforge.net/DTD/sodipodi-0.dtd"
   xmlns="http://www.w3.org/2000/svg"
   xmlns:svg="http://www.w3.org/2000/svg">
  <defs
     id="defs1147" />
  <sodipodi:namedview
     id="namedview1145"
     pagecolor="#ffffff"
     bordercolor="#666666"
     borderopacity="1.0"
     inkscape:pageshadow="2"
     inkscape:pageopacity="0.0"
     inkscape:pagecheckerboard="0"
     showgrid="false"
     inkscape:zoom="54.5625"
     inkscape:cx="7.9908362"
     inkscape:cy="8"
     inkscape:window-width="1299"
     inkscape:window-height="1081"
     inkscape:window-x="846"
     inkscape:window-y="894"
     inkscape:window-maximized="0"
     inkscape:current-layer="svg1143" />
  <path
     d="M8 0C5.829 0 5.556.01 4.703.048 3.85.088 3.269.222 2.76.42a3.917 3.917 0 0 0-1.417.923A3.927 3.927 0 0 0 .42 2.76C.222 3.268.087 3.85.048 4.7.01 5.555 0 5.827 0 8.001c0 2.172.01 2.444.048 3.297.04.852.174 1.433.372 1.942.205.526.478.972.923 1.417.444.445.89.719 1.416.923.51.198 1.09.333 1.942.372C5.555 15.99 5.827 16 8 16s2.444-.01 3.298-.048c.851-.04 1.434-.174 1.943-.372a3.916 3.916 0 0 0 1.416-.923c.445-.445.718-.891.923-1.417.197-.509.332-1.09.372-1.942C15.99 10.445 16 10.173 16 8s-.01-2.445-.048-3.299c-.04-.851-.175-1.433-.372-1.941a3.926 3.926 0 0 0-.923-1.417A3.911 3.911 0 0 0 13.24.42c-.51-.198-1.092-.333-1.943-.372C10.443.01 10.172 0 7.998 0h.003zm-.717 1.442h.718c2.136 0 2.389.007 3.232.046.78.035 1.204.166 1.486.275.373.145.64.319.92.599.28.28.453.546.598.92.11.281.24.705.275 1.485.039.843.047 1.096.047 3.231s-.008 2.389-.047 3.232c-.035.78-.166 1.203-.275 1.485a2.47 2.47 0 0 1-.599.919c-.28.28-.546.453-.92.598-.28.11-.704.24-1.485.276-.843.038-1.096.047-3.232.047s-2.39-.009-3.233-.047c-.78-.036-1.203-.166-1.485-.276a2.478 2.478 0 0 1-.92-.598 2.48 2.48 0 0 1-.6-.92c-.109-.281-.24-.705-.275-1.485-.038-.843-.046-1.096-.046-3.233 0-2.136.008-2.388.046-3.231.036-.78.166-1.204.276-1.486.145-.373.319-.64.599-.92.28-.28.546-.453.92-.598.282-.11.705-.24 1.485-.276.738-.034 1.024-.044 2.515-.045v.002zm4.988 1.328a.96.96 0 1 0 0 1.92.96.96 0 0 0 0-1.92zm-4.27 1.122a4.109 4.109 0 1 0 0 8.217 4.109 4.109 0 0 0 0-8.217zm0 1.441a2.667 2.667 0 1 1 0 5.334 2.667 2.667 0 0 1 0-5.334z"
     id="path1141" />
  <path
     style="fill:#ffffff;stroke-width:0.0183276"
     d="M 6.3780069,15.979754 C 4.9053797,15.965603 4.4105338,15.942404 3.8797299,15.862632 3.2757033,15.771855 2.6845956,15.573958 2.1954386,15.298747 1.5971757,14.96215 1.0071119,14.363174 0.66550569,13.745704 0.49172591,13.431589 0.30065888,12.912048 0.21122135,12.510433 0.0445014,11.761785 0.0178124,11.141147 0.01761552,8.0082344 0.01739064,4.4298124 0.05266579,3.8946322 0.34739002,3.0050313 0.57509667,2.3177175 0.86098659,1.8498751 1.3554309,1.3554309 1.8498751,0.86098659 2.3177175,0.57509667 3.0050313,0.34739002 3.8919954,0.05353935 4.4548954,0.01611164 7.9908362,0.0158795 11.547116,0.01564602 12.105228,0.05261941 12.994969,0.34739002 13.683935,0.5756441 14.150059,0.86035513 14.644852,1.3551483 15.138573,1.84887 15.427902,2.3227594 15.652598,3.0057274 15.94703,3.9006592 15.981862,4.4287991 15.981981,8 c 9.2e-5,2.523996 -0.01477,3.197789 -0.08465,3.839633 -0.151744,1.393853 -0.71583,2.459958 -1.689772,3.193618 -0.680404,0.512542 -1.566563,0.811609 -2.642845,0.891927 -0.735685,0.0549 -2.8441684,0.07709 -5.1867121,0.05458 z m 3.5647193,-1.427543 c 1.3300428,-0.02327 1.7648968,-0.05231 2.2359678,-0.149318 0.415335,-0.08553 0.881335,-0.285224 1.163803,-0.498721 0.19891,-0.150342 0.497765,-0.457906 0.617276,-0.635265 0.29746,-0.441444 0.471229,-0.993195 0.536718,-1.704188 0.04495,-0.488011 0.05878,-1.086118 0.06824,-2.9507442 C 14.577491,6.0979202 14.54867,4.7695106 14.468502,4.1786942 14.371847,3.4663633 14.147804,2.9219303 13.773281,2.489278 13.313418,1.9580411 12.681032,1.6477853 11.821306,1.5316171 11.235308,1.4524356 9.8131689,1.422345 7.257732,1.4350576 5.3612408,1.4444922 4.8116963,1.4591506 4.31792,1.5134731 3.5496533,1.5979936 2.9877885,1.810367 2.535805,2.1870763 1.9724164,2.6566371 1.6517348,3.2925729 1.5314976,4.1786942 1.4525737,4.7603447 1.4219756,6.1905693 1.435433,8.6689576 c 0.012495,2.3011744 0.037641,2.9085794 0.1419549,3.4289274 0.1370478,0.683635 0.3781369,1.149565 0.8126115,1.570457 0.3095816,0.299905 0.5806957,0.466461 0.9877648,0.606824 0.4006653,0.138155 0.7805354,0.203808 1.3965772,0.241368 0.761233,0.04641 3.4814445,0.06519 5.1683848,0.03568 z"
     id="path1186" />
  <path
     style="fill:#ffffff;stroke-width:0.0183276"
     d="M 7.4318442,12.067552 C 6.0307147,11.877258 4.8714307,11.046914 4.2605673,9.7961054 3.9698132,9.2007547 3.8451501,8.6617591 3.8451501,8 c 0,-0.6617591 0.1246631,-1.2007547 0.4154172,-1.7961054 0.688399,-1.4095713 2.111372,-2.3001145 3.6752861,-2.3001145 1.8866414,0 3.5356336,1.2974296 3.9832426,3.1340206 0.152497,0.625716 0.152497,1.2986826 0,1.9243986 -0.379649,1.5577457 -1.633635,2.7561657 -3.202068,3.0601787 -0.3984695,0.07724 -0.9153365,0.0954 -1.2851838,0.04517 z M 8.5773196,10.615158 C 8.8622147,10.54793 9.1941491,10.413423 9.4110972,10.277295 9.9333967,9.9495666 10.342903,9.4330472 10.534859,8.859868 c 0.184282,-0.5502647 0.184282,-1.1694713 0,-1.719736 C 10.402801,6.7458075 10.160313,6.364226 9.8577921,6.0746932 9.492292,5.7248849 9.0794604,5.502512 8.5773196,5.3849631 8.3479095,5.3312592 7.8201316,5.3181937 7.5658588,5.3599238 7.0164461,5.4500908 6.5124093,5.7105551 6.1114822,6.1114822 5.8110057,6.4119586 5.6109888,6.729194 5.4741527,7.122314 5.3597681,7.4509324 5.3423947,7.5687412 5.3433675,8.0091638 c 9.585e-4,0.4339319 0.019676,0.5546797 0.1379402,0.8898443 0.2250485,0.6377968 0.712228,1.1880509 1.3243634,1.4958259 0.1833039,0.09216 0.5238748,0.205701 0.7269749,0.242354 0.2279601,0.04114 0.8308575,0.02843 1.0446736,-0.02203 z"
     id="path1225" />
  <path
     style="fill:#ffffff;stroke-width:0.0183276"
     d="m 11.986254,4.6318292 c -0.164412,-0.056259 -0.267888,-0.1208024 -0.388366,-0.2422456 -0.366614,-0.3695493 -0.363776,-0.9557457 0.0064,-1.325941 0.185544,-0.1855442 0.406802,-0.2778465 0.666025,-0.2778465 0.42584,0 0.792235,0.2784898 0.914632,0.6951936 0.03757,0.1279248 0.03757,0.3694314 0,0.4973562 C 13.090325,4.3004978 12.841143,4.5496753 12.518991,4.6443 12.371338,4.68767 12.133129,4.682094 11.986235,4.631829 Z"
     id="path1264" />
</svg>
