<?xml version="1.0" encoding="UTF-8" standalone="no"?>
<svg
   width="16"
   height="16"
   fill="currentColor"
   class="bi bi-twitter"
   viewBox="0 0 16 16"
   version="1.1"
   id="svg1320"
   sodipodi:docname="twitter.svg"
   inkscape:version="1.1 (c68e22c387, 2021-05-23)"
   xmlns:inkscape="http://www.inkscape.org/namespaces/inkscape"
   xmlns:sodipodi="http://sodipodi.sourceforge.net/DTD/sodipodi-0.dtd"
   xmlns="http://www.w3.org/2000/svg"
   xmlns:svg="http://www.w3.org/2000/svg">
  <defs
     id="defs1324" />
  <sodipodi:namedview
     id="namedview1322"
     pagecolor="#ffffff"
     bordercolor="#666666"
     borderopacity="1.0"
     inkscape:pageshadow="2"
     inkscape:pageopacity="0.0"
     inkscape:pagecheckerboard="0"
     showgrid="false"
     inkscape:zoom="54.5625"
     inkscape:cx="7.9908362"
     inkscape:cy="8"
     inkscape:window-width="1299"
     inkscape:window-height="957"
     inkscape:window-x="1215"
     inkscape:window-y="956"
     inkscape:window-maximized="0"
     inkscape:current-layer="svg1320" />
  <path
     d="M5.026 15c6.038 0 9.341-5.003 9.341-9.334 0-.14 0-.282-.006-.422A6.685 6.685 0 0 0 16 3.542a6.658 6.658 0 0 1-1.889.518 3.301 3.301 0 0 0 1.447-1.817 6.533 6.533 0 0 1-2.087.793A3.286 3.286 0 0 0 7.875 6.03a9.325 9.325 0 0 1-6.767-3.429 3.289 3.289 0 0 0 1.018 4.382A3.323 3.323 0 0 1 .64 6.575v.045a3.288 3.288 0 0 0 2.632 3.218 3.203 3.203 0 0 1-.865.115 3.23 3.23 0 0 1-.614-.057 3.283 3.283 0 0 0 3.067 2.277A6.588 6.588 0 0 1 .78 13.58a6.32 6.32 0 0 1-.78-.045A9.344 9.344 0 0 0 5.026 15z"
     id="path1318" />
  <path
     style="fill:#ffffff;stroke-width:0.0183276"
     d="M 4.5635739,14.980094 C 3.8343564,14.931608 3.2704508,14.84344 2.6483391,14.680644 2.0014855,14.511374 1.2732958,14.230486 0.71477663,13.934803 0.49752262,13.819788 0.05057605,13.560124 0.05877015,13.553681 c 0.0029571,-0.0023 0.07960327,0.0035 0.17032492,0.01294 0.0907216,0.0094 0.4,0.01315 0.68728523,0.0082 0.4367499,-0.0075 0.5733886,-0.01665 0.8339061,-0.05611 1.0663655,-0.161525 2.0401288,-0.558044 2.9188523,-1.188565 0.1135016,-0.08144 0.2038492,-0.150595 0.2007721,-0.153672 -0.00308,-0.0031 -0.1000656,-0.01446 -0.2155304,-0.0253 C 3.4890469,12.041834 2.5095835,11.379169 1.9942789,10.351501 1.8997755,10.163034 1.8076687,9.9342175 1.8209577,9.9209285 c 0.00438,-0.00438 0.075971,0.00135 0.1590874,0.012725 0.1959624,0.026831 0.6626141,0.026944 0.8609906,2.071e-4 0.184329,-0.024843 0.4062785,-0.072121 0.4264722,-0.090845 0.0079,-0.00732 -0.032362,-0.023768 -0.089464,-0.036547 C 2.8592207,9.7351199 2.3860677,9.5282188 2.1076747,9.3384167 1.2523209,8.7552557 0.73878112,7.8702726 0.66123246,6.8457629 0.65134904,6.7151914 0.64569446,6.6059282 0.6486667,6.6029561 c 0.002972,-0.00297 0.0829804,0.031301 0.17779594,0.076164 0.33962606,0.1606952 0.77784436,0.2773238 1.12084546,0.2983047 0.098282,0.00601 0.1786942,0.00692 0.1786942,0.00202 0,-0.0049 -0.072165,-0.06308 -0.1603666,-0.1292901 C 1.7984737,6.7246737 1.5274366,6.4601679 1.3869831,6.2854479 1.0304191,5.8418925 0.79218318,5.2794454 0.7042264,4.6735395 0.66322822,4.3911162 0.67605084,3.9235907 0.73259935,3.6390328 0.7865023,3.3677877 0.89171636,3.0548026 1.0093275,2.8158369 l 0.09742,-0.19794 0.065183,0.079368 c 0.1326917,0.1615668 0.4013721,0.4513583 0.6150114,0.6633347 1.4412413,1.4300234 3.34654,2.3561782 5.3754729,2.6129862 0.1642993,0.020796 0.3944753,0.043279 0.5115024,0.049963 l 0.2127767,0.012153 -0.011842,-0.044196 C 7.7943555,5.6910864 7.7876864,4.9932932 7.8619922,4.6460481 7.9719665,4.1321173 8.205471,3.6337762 8.5232412,3.2348225 8.6194108,3.1140836 8.9107195,2.8212893 9.0263459,2.7291517 9.4099064,2.4235098 9.9372521,2.1780883 10.446735,2.0681165 c 0.167796,-0.036219 0.246423,-0.041626 0.613975,-0.042227 0.368894,-6.03e-4 0.447475,0.00457 0.629256,0.041395 0.626813,0.1269925 1.175385,0.4093518 1.634618,0.8413648 l 0.144988,0.1363949 0.151812,-0.030899 c 0.533258,-0.1085378 1.235512,-0.3690786 1.727517,-0.6409199 0.100143,-0.055331 0.183794,-0.1006023 0.185891,-0.1006023 0.01289,0 -0.118788,0.3088831 -0.194555,0.456371 -0.243117,0.4732566 -0.607869,0.8916061 -1.040653,1.1935688 -0.08487,0.059219 -0.163806,0.1110793 -0.175404,0.1152453 -0.0116,0.00417 -0.01594,0.013164 -0.0096,0.019995 0.0137,0.014881 0.309912,-0.029993 0.605512,-0.091732 0.362436,-0.075698 0.782528,-0.2086123 1.214712,-0.3843273 0.04615,-0.018764 -0.06063,0.1342051 -0.317418,0.4547077 -0.305909,0.3818148 -0.780862,0.8414916 -1.150535,1.1135288 l -0.11197,0.082398 -0.0095,0.5682323 c -0.0099,0.5891727 -0.03295,0.8600293 -0.114331,1.3415683 -0.445454,2.6359034 -1.958152,4.9896681 -4.104978,6.3873621 -1.3230612,0.861381 -2.8286119,1.343415 -4.5085908,1.443521 -0.2836034,0.0169 -0.8487272,0.02067 -1.0538373,0.007 z"
     id="path1363" />
</svg>
