<?xml version="1.0" encoding="UTF-8" standalone="no"?>
<svg
   width="16"
   height="16"
   fill="currentColor"
   class="bi bi-youtube"
   viewBox="0 0 16 16"
   version="1.1"
   id="svg1422"
   sodipodi:docname="youtube.svg"
   inkscape:version="1.1 (c68e22c387, 2021-05-23)"
   xmlns:inkscape="http://www.inkscape.org/namespaces/inkscape"
   xmlns:sodipodi="http://sodipodi.sourceforge.net/DTD/sodipodi-0.dtd"
   xmlns="http://www.w3.org/2000/svg"
   xmlns:svg="http://www.w3.org/2000/svg">
  <defs
     id="defs1426" />
  <sodipodi:namedview
     id="namedview1424"
     pagecolor="#ffffff"
     bordercolor="#666666"
     borderopacity="1.0"
     inkscape:pageshadow="2"
     inkscape:pageopacity="0.0"
     inkscape:pagecheckerboard="0"
     showgrid="false"
     inkscape:zoom="54.5625"
     inkscape:cx="7.9908362"
     inkscape:cy="8"
     inkscape:window-width="1299"
     inkscape:window-height="1081"
     inkscape:window-x="1101"
     inkscape:window-y="933"
     inkscape:window-maximized="0"
     inkscape:current-layer="svg1422" />
  <path
     d="M8.051 1.999h.089c.822.003 4.987.033 6.11.335a2.01 2.01 0 0 1 1.415 1.42c.101.38.172.883.22 1.402l.01.104.022.26.008.104c.065.914.073 1.77.074 1.957v.075c-.001.194-.01 1.108-.082 2.06l-.008.105-.009.104c-.05.572-.124 1.14-.235 1.558a2.007 2.007 0 0 1-1.415 1.42c-1.16.312-5.569.334-6.18.335h-.142c-.309 0-1.587-.006-2.927-.052l-.17-.006-.087-.004-.171-.007-.171-.007c-1.11-.049-2.167-.128-2.654-.26a2.007 2.007 0 0 1-1.415-1.419c-.111-.417-.185-.986-.235-1.558L.09 9.82l-.008-.104A31.4 31.4 0 0 1 0 7.68v-.123c.002-.215.01-.958.064-1.778l.007-.103.003-.052.008-.104.022-.26.01-.104c.048-.519.119-1.023.22-1.402a2.007 2.007 0 0 1 1.415-1.42c.487-.13 1.544-.21 2.654-.26l.17-.007.172-.006.086-.003.171-.007A99.788 99.788 0 0 1 7.858 2h.193zM6.4 5.209v4.818l4.157-2.408L6.4 5.209z"
     id="path1420" />
  <path
     style="fill:#ffffff;stroke-width:0.0183276"
     d="M 6.3871707,13.214427 C 4.0720249,13.168069 2.4104456,13.056771 1.8235968,12.908743 1.1669734,12.743115 0.66228038,12.310231 0.42173845,11.706344 -0.04749264,10.528328 -0.12807693,5.9706709 0.28565707,4.0099041 0.39797718,3.477597 0.57371955,3.1416233 0.90390024,2.8279839 1.2523223,2.497017 1.6066628,2.3437582 2.229937,2.2544485 3.2878937,2.1028527 5.3864295,2.0162377 8,2.0162948 c 3.298155,7.2e-5 5.652411,0.132816 6.340783,0.3575234 0.588831,0.1922138 1.072617,0.6687581 1.272917,1.253864 0.143982,0.4205912 0.258612,1.267191 0.332689,2.457083 0.03148,0.5056003 0.04246,2.0267832 0.01873,2.5933562 -0.06251,1.4923616 -0.194339,2.5315746 -0.381292,3.0057276 -0.21409,0.542979 -0.624273,0.948986 -1.163758,1.151909 -0.487718,0.183452 -1.719757,0.292875 -4.055811,0.360214 -0.8955152,0.02582 -3.0989266,0.03604 -3.9770903,0.01846 z M 8.7839824,8.6597938 C 9.7587359,8.0953036 10.553773,7.6256854 10.550731,7.6161981 10.546017,7.6014939 6.483792,5.235846 6.419244,5.2102153 6.400986,5.2029654 6.3963345,5.6925423 6.3963345,7.6214048 V 10.041691 L 6.7040187,9.8639155 C 6.873245,9.7661388 7.8092287,9.2242841 8.7839824,8.6597938 Z"
     id="path1465" />
  <path
     style="fill:#000000;stroke-width:0.0183276"
     d="m 6.4146621,7.6247065 c 0,-1.3106561 0.00452,-2.3830112 0.010042,-2.3830112 0.00552,0 0.9297526,0.533208 2.0538432,1.1849066 C 10.120149,7.3783309 10.517614,7.615925 10.498288,7.6339513 10.485054,7.646295 9.5793814,8.1737961 8.4856816,8.8061762 7.3919817,9.4385563 6.4785796,9.9676041 6.4558992,9.9818381 l -0.041237,0.02588 z"
     id="path1504" />
</svg>
